# xmcd
#
# Track frame offsets: 
#        150
#        16984
#        40673
#        66314
#        92435
#        111529
#        129828
#        156210
#        179881
#        198543
#
# Disc length: 2953 seconds
#
# Revision: 0
# Processed by: cddbd v1.5.2PL0 Copyright (c) Steve Scherf et al.
# Submitted via: ExactAudioCopy v1.0b1
#
DISCID=880b870a
DTITLE=ミドリカワ書房 - 愛にのぼせろ
DYEAR=2011
DGENRE=Pops
TTITLE0=グッドモーニング
TTITLE1=銭湯の思い出
TTITLE2=君は僕のものだった
TTITLE3=片想われ
TTITLE4=魔法にかけて！
TTITLE5=こちょばしっこ
TTITLE6=はじめての合コン
TTITLE7=I am not a mother
TTITLE8=また明日
TTITLE9=熱海
EXTD=
EXTT0=
EXTT1=
EXTT2=
EXTT3=
EXTT4=
EXTT5=
EXTT6=
EXTT7=
EXTT8=
EXTT9=
PLAYORDER=
